<?xml version="1.0" encoding="UTF-8" standalone="no"?>
<!-- Created with Inkscape (http://www.inkscape.org/) -->
<!-- Design and conception by Théophile Choutri ~> https://theophile.choutri.eu -->
<!-- This work is licenced under the CC BY-NC-ND 4.0 licence. -->
<!-- Read more at https://creativecommons.org/licenses/by-nc-nd/4.0/ -->

<svg
   xmlns:dc="http://purl.org/dc/elements/1.1/"
   xmlns:cc="http://creativecommons.org/ns#"
   xmlns:rdf="http://www.w3.org/1999/02/22-rdf-syntax-ns#"
   xmlns:svg="http://www.w3.org/2000/svg"
   xmlns="http://www.w3.org/2000/svg"
   xmlns:sodipodi="http://sodipodi.sourceforge.net/DTD/sodipodi-0.dtd"
   xmlns:inkscape="http://www.inkscape.org/namespaces/inkscape"
   width="209.49002mm"
   height="95.346962mm"
   viewBox="0 0 209.49002 95.346962"
   version="1.1"
   id="svg4799"
   inkscape:version="0.92.2 (5c3e80d, 2017-08-06)"
   sodipodi:docname="Hekateros.svg">
  <defs
     id="defs4793" />
  <sodipodi:namedview
     id="base"
     pagecolor="#ffffff"
     bordercolor="#666666"
     borderopacity="1.0"
     inkscape:pageopacity="0.0"
     inkscape:pageshadow="2"
     inkscape:zoom="1"
     inkscape:cx="224.1888"
     inkscape:cy="215.62084"
     inkscape:document-units="mm"
     inkscape:current-layer="layer1"
     showgrid="false"
     showborder="true"
     inkscape:window-width="1920"
     inkscape:window-height="1026"
     inkscape:window-x="0"
     inkscape:window-y="0"
     inkscape:window-maximized="1"
     fit-margin-top="0"
     fit-margin-left="0"
     fit-margin-right="0"
     fit-margin-bottom="0" />
  <metadata
     id="metadata4796">
    <rdf:RDF>
      <cc:Work
         rdf:about="">
        <dc:format>image/svg+xml</dc:format>
        <dc:type
           rdf:resource="http://purl.org/dc/dcmitype/StillImage" />
        <dc:title></dc:title>
      </cc:Work>
    </rdf:RDF>
  </metadata>
  <g
     inkscape:label="Calque 1"
     inkscape:groupmode="layer"
     id="layer1"
     transform="translate(-0.40585043,-63.871546)">
    <text
       xml:space="preserve"
       style="font-style:normal;font-weight:normal;font-size:10.58333302px;line-height:1.25;font-family:sans-serif;letter-spacing:9.37154102px;word-spacing:0px;fill:#000000;fill-opacity:1;stroke:none;stroke-width:0.26458332"
       x="94.323959"
       y="157.0354"
       id="text4807"><tspan
         sodipodi:role="line"
         id="tspan4805"
         x="94.323959"
         y="166.39917"
         style="stroke-width:0.26458332"></tspan></text>
    <g
       id="g4859"
       transform="matrix(2.7323888,0,0,2.7020772,-75.889311,-237.40071)">
      <text
         id="text4803"
         y="132.42915"
         x="39.422916"
         style="font-style:normal;font-variant:normal;font-weight:500;font-stretch:normal;font-size:10.58333302px;line-height:1.25;font-family:GeosansLight;-inkscape-font-specification:'GeosansLight, Medium';font-variant-ligatures:normal;font-variant-caps:normal;font-variant-numeric:normal;font-feature-settings:normal;text-align:start;letter-spacing:0.79374999px;word-spacing:0px;writing-mode:lr-tb;text-anchor:start;fill:#000000;fill-opacity:1;stroke:none;stroke-width:0.26458332"
         xml:space="preserve"><tspan
           style="font-style:normal;font-variant:normal;font-weight:500;font-stretch:normal;font-size:10.58333302px;font-family:GeosansLight;-inkscape-font-specification:'GeosansLight, Medium';font-variant-ligatures:normal;font-variant-caps:normal;font-variant-numeric:normal;font-feature-settings:normal;text-align:start;letter-spacing:0.79374999px;writing-mode:lr-tb;text-anchor:start;stroke-width:0.26458332"
           y="132.42915"
           x="39.422916"
           id="tspan4801"
           sodipodi:role="line">Ἑκάτερος</tspan></text>
      <path
         inkscape:connector-curvature="0"
         d="m 97.094978,113.7655 c -0.862296,0.56739 -1.451245,1.45237 -1.974757,2.32201 -0.544222,0.98958 -0.734515,2.11601 -0.601986,3.23621 0.03697,0.31251 0.110813,0.61956 0.166217,0.92933 0.44618,1.72051 1.363189,3.24979 2.64814,4.47534 0.24597,0.23461 0.51393,0.44502 0.770893,0.66752 0.805397,0.63276 1.676083,1.17343 2.534985,1.72853 0.51626,0.33364 1.11792,0.70553 1.59822,1.09302 0.24706,0.19931 0.47199,0.42459 0.70798,0.63688 0.19803,0.21381 0.41521,0.41135 0.59409,0.64142 0.52128,0.67049 0.88886,1.4905 1.00409,2.33429 0.109,0.79812 0.019,0.9797 -0.10751,1.77306 -0.12047,0.31271 -0.20834,0.64002 -0.36141,0.93813 -1.03885,2.02309 -3.31658,3.53623 -5.150173,4.76912 -0.461388,0.27848 -0.91752,0.56585 -1.384163,0.83542 -0.94748,0.54736 -1.896374,1.09273 -2.85783,1.61515 -0.446233,0.24246 -0.906963,0.45734 -1.36397,0.67883 -1.134626,0.5499 -2.284219,1.04595 -3.454042,1.51465 -0.278726,0.10612 -0.557454,0.21224 -0.836179,0.31837 0,0 1.445048,-1.13161 1.445048,-1.13161 v 0 c 0.269632,-0.10044 0.539263,-0.20089 0.808895,-0.30134 1.147654,-0.45487 2.274361,-0.93874 3.38519,-1.47898 0.452583,-0.22011 0.894162,-0.4627 1.349746,-0.67653 0.03209,-0.0151 -0.103788,0.0949 -0.07301,0.0773 0.466199,-0.26646 0.922007,-0.55071 1.383012,-0.82606 1.279768,-0.85046 2.513327,-1.67443 3.619336,-2.75375 0.58936,-0.57514 1.09034,-1.14904 1.47916,-1.87712 0.152,-0.28463 0.24257,-0.59801 0.36386,-0.89701 0.13555,-0.75997 0.22688,-0.93591 0.13211,-1.7044 -0.13905,-1.12758 -0.73626,-2.09821 -1.52669,-2.8871 -0.23218,-0.20718 -0.45402,-0.42656 -0.69654,-0.62152 -1.303655,-1.04799 -2.842779,-1.77178 -4.131273,-2.84249 -0.644499,-0.5675 -0.946163,-0.7907 -1.50332,-1.45395 -0.929098,-1.10602 -1.59453,-2.39933 -1.986849,-3.7867 -0.06504,-0.31343 -0.1485,-0.62359 -0.195104,-0.94028 -0.166571,-1.13193 -0.02005,-2.30195 0.514059,-3.31828 0.508752,-0.86763 1.074907,-1.74943 1.873298,-2.379 0,0 1.826482,-0.70847 1.826482,-0.70847 z"
         id="path4824"
         style="opacity:1;fill:#800000;fill-opacity:1;stroke-width:0.26458332" />
      <path
         inkscape:connector-curvature="0"
         d="m 42.134218,138.80724 c 0.01275,-0.0808 0.121806,-0.78936 0.118573,-0.79179 -0.342241,-0.25728 -0.772179,-0.37077 -1.165749,-0.53937 -0.928121,-0.39759 -2.980274,-1.19867 -3.888205,-1.5568 -2.397998,-0.96795 -4.846138,-1.92687 -6.945088,-3.47149 -0.203332,-0.14963 -0.39175,-0.31854 -0.587624,-0.47781 -0.133442,-0.13781 -0.282657,-0.26192 -0.400327,-0.41341 -0.270537,-0.3483 -0.485696,-0.83673 -0.562258,-1.27292 -0.04988,-0.28419 -0.02971,-0.52446 -0.02188,-0.80885 0.114279,-0.88785 0.609899,-1.42927 1.205889,-2.0465 0.594913,-0.51242 1.187575,-1.02308 1.708574,-1.61208 0.478078,-0.63706 0.750355,-1.30652 0.770524,-2.10956 0.005,-0.20016 -0.01357,-0.40022 -0.02035,-0.60033 -0.144677,-1.55639 -0.933699,-2.91516 -1.684613,-4.24905 -0.523009,-0.93504 -1.087149,-1.84739 -1.579242,-2.79972 -0.172881,-0.33457 -0.388461,-0.80359 -0.551032,-1.15142 -0.209722,-0.47047 -0.405802,-0.94964 -0.546462,-1.44593 -0.02249,-0.0793 -0.05531,-0.1574 -0.06128,-0.23963 -0.0065,-0.0901 0.01619,-0.17984 0.02429,-0.26976 0.975818,-1.54017 2.63784,-1.51491 4.156927,-1.41501 1.235951,0.0813 2.042657,0.20956 3.297523,0.3733 3.451437,0.51659 6.88127,1.19906 10.255144,2.0945 0.584388,0.1551 1.1644,0.32624 1.746599,0.48936 1.671212,0.49575 3.324278,1.0555 4.943105,1.7025 0,0 -1.56836,1.04622 -1.56836,1.04622 v 0 c -1.54921,-0.69398 -3.139911,-1.29329 -4.760267,-1.80012 -0.571743,-0.16829 -1.140584,-0.34678 -1.715236,-0.50487 -3.36733,-0.92637 -6.80608,-1.5953 -10.266097,-2.06026 -1.501939,-0.16161 -3.02505,-0.37489 -4.540721,-0.27122 -0.26379,0.0181 -0.922983,0.34069 -0.784797,0.11527 0.202674,-0.33062 1.779413,-1.18587 0.983938,-0.62076 -0.02048,0.0664 -0.05952,0.1298 -0.06144,0.19929 -0.0021,0.0801 0.03081,0.15729 0.04947,0.23521 0.118779,0.4959 0.303117,0.97251 0.490026,1.44584 0.590746,1.37283 1.32351,2.67219 2.083687,3.95772 0.769829,1.35337 1.569265,2.73223 1.76086,4.30646 0.03449,0.55767 0.07932,1.12532 -0.07634,1.67238 -0.117006,0.41121 -0.367617,0.78309 -0.574352,1.15111 -0.513619,0.60288 -1.092057,1.13856 -1.714897,1.62791 -0.55481,0.55118 -1.116065,1.11274 -1.256585,1.91523 -0.01635,0.26009 -0.04423,0.49815 -0.0075,0.7591 0.08762,0.62341 0.417253,1.17641 0.854181,1.61631 0.181621,0.16198 0.355285,0.33334 0.544859,0.48592 1.996739,1.60718 4.401127,2.58699 6.750876,3.54771 0.683045,0.26193 1.363831,0.52985 2.049139,0.78581 0.647867,0.24199 1.307873,0.4517 1.950223,0.70797 0.491463,0.19608 1.00988,0.35302 1.449033,0.6482 0.02952,0.0198 -0.139748,0.73472 -0.09461,0.77822 0,0 -1.758079,0.86712 -1.758079,0.86712 z"
         id="path4826"
         style="opacity:1;fill:#800000;fill-opacity:1;stroke-width:0.26458332" />
      <path
         inkscape:connector-curvature="0"
         d="m 70.984289,111.53841 c 0.01349,1.26461 0.146084,2.52732 0.30263,3.78146 0.115787,0.75416 0.261216,1.50308 0.446032,2.24338 0.09144,0.36625 0.188868,0.77272 0.349782,1.11907 0.06638,0.14287 0.158639,0.27222 0.237956,0.40833 0.102896,0.0955 0.188558,0.21379 0.308684,0.28638 0.455533,0.27528 1.07524,0.14264 1.555245,0.0511 0.669358,-0.12766 0.928933,-0.2184 1.598115,-0.40858 1.352642,-0.37041 2.650744,-0.93732 4.019785,-1.25166 0.230185,-0.0529 0.464698,-0.0847 0.697047,-0.12698 1.034482,-0.13754 2.103263,-0.22463 3.133643,-0.002 0.194379,0.042 0.383562,0.10517 0.575342,0.15775 0.730906,0.25599 1.410187,0.65342 2.004211,1.15079 0.282824,0.23681 0.570717,0.55327 0.824489,0.81904 0.599027,0.6523 1.144993,1.34852 1.662277,2.0665 0,0 -1.645936,0.97038 -1.645936,0.97038 v 0 c -0.49748,-0.71949 -1.025181,-1.41727 -1.626526,-2.0545 -0.285642,-0.29499 -0.495057,-0.52798 -0.811879,-0.78963 -0.581517,-0.48026 -1.240311,-0.86292 -1.959176,-1.0943 -0.187952,-0.0469 -0.373669,-0.10398 -0.563857,-0.14083 -1.01541,-0.19674 -2.066009,-0.1064 -3.080194,0.0415 -0.229399,0.0464 -0.460566,0.0848 -0.688195,0.13916 -1.356928,0.32432 -2.65386,0.8583 -3.995684,1.23403 -0.610526,0.17024 -1.022437,0.303 -1.642099,0.40923 -0.556059,0.0953 -1.187416,0.17618 -1.682859,-0.17145 -0.128529,-0.0902 -0.219922,-0.22416 -0.32988,-0.33624 -0.08158,-0.14735 -0.176823,-0.28793 -0.244755,-0.44206 -0.155779,-0.35344 -0.25087,-0.78012 -0.337045,-1.15172 -0.173815,-0.74951 -0.316738,-1.50591 -0.44282,-2.26479 -0.170471,-1.24806 -0.283697,-2.50317 -0.403746,-3.75694 0,0 1.739413,-0.88628 1.739413,-0.88628 z"
         id="path4830"
         style="opacity:1;fill:#800000;fill-opacity:1;stroke-width:0.26458332" />
      <path
         inkscape:connector-curvature="0"
         d="m 74.887957,142.16221 c -1.222388,0.11142 -2.453492,0.13434 -3.67919,0.0637 -0.439359,-0.0253 -0.87738,-0.0701 -1.316069,-0.10514 -2.019658,-0.24136 -4.042749,-0.62234 -5.96687,-1.29844 -1.824353,-0.73506 -0.912175,-0.39351 -2.735594,-1.02713 -1.692142,-0.46196 -3.473836,-0.61456 -5.188743,-0.1645 -1.061347,0.27854 -1.369838,0.50429 -2.348304,1.00423 0.12809,-0.0485 0.484081,-0.23943 0.384265,-0.14563 -0.318704,0.29952 -0.71092,0.50997 -1.056789,0.77766 -1.111295,0.86009 -2.165797,1.79964 -3.231517,2.71503 -1.004869,0.8862 -2.149383,1.50398 -3.330115,2.14336 -0.02252,0.0122 -0.696359,0.26953 -0.72993,0.28239 -0.365918,0.12476 -0.731369,0.25087 -1.097388,0.37534 0,0 1.514716,-1.17848 1.514716,-1.17848 v 0 c 0.365183,-0.12498 0.731012,-0.24827 1.093081,-0.38212 0.772199,-0.3039 1.642197,-0.81688 -0.580229,0.46809 -0.136747,0.0791 0.27091,-0.16276 0.402164,-0.25065 0.447876,-0.2999 0.579065,-0.41896 1.018453,-0.76626 2.221703,-1.86309 4.368165,-3.82779 6.988778,-5.13903 1.002731,-0.49099 1.306661,-0.70945 2.389965,-0.9707 1.731362,-0.41754 3.520284,-0.22606 5.214009,0.25606 0.450969,0.16047 0.905499,0.31128 1.352913,0.48142 0.457554,0.174 0.899339,0.38905 1.361381,0.55077 1.925143,0.67379 3.952952,1.03784 5.976287,1.24457 0.44451,0.0273 0.888502,0.0651 1.333537,0.0818 1.269063,0.0476 2.54635,-0.004 3.802972,-0.19111 0,0 -1.571783,1.17472 -1.571783,1.17472 z"
         id="path4832"
         style="opacity:1;fill:#800000;fill-opacity:1;stroke-width:0.26458332" />
    </g>
  </g>
</svg>
